<svg xmlns="http://www.w3.org/2000/svg" viewBox="0 0 1920 1080"><g transform="
          rotate(150 960 540) 
          translate(-724.7177209663946 -407.6537180435969)
          scale(1.7549142926733277)
        "><rect width="1920" height="1080" fill="rgb(148, 143, 255)"></rect><g transform="translate(0, 0)"><path fill="rgb(118, 114, 204)" fill-opacity="1" d="M0,211.766L53.333,210.045C106.667,208.324,213.333,204.882,320,204.349C426.667,203.815,533.333,206.19,640,206.457C746.667,206.724,853.333,204.883,960,181.91C1066.667,158.936,1173.333,114.83,1280,111.105C1386.667,107.38,1493.333,144.036,1600,132.802C1706.667,121.567,1813.333,62.441,1866.667,32.878L1920,3.316L1920,1080L1866.667,1080C1813.333,1080,1706.667,1080,1600,1080C1493.333,1080,1386.667,1080,1280,1080C1173.333,1080,1066.667,1080,960,1080C853.333,1080,746.667,1080,640,1080C533.333,1080,426.667,1080,320,1080C213.333,1080,106.667,1080,53.333,1080L0,1080Z"></path></g><g transform="translate(0, 216)"><path fill="rgb(89, 86, 153)" fill-opacity="1" d="M0,160.574L53.333,147.421C106.667,134.268,213.333,107.962,320,83.613C426.667,59.265,533.333,36.873,640,48.431C746.667,59.99,853.333,105.497,960,113.703C1066.667,121.909,1173.333,92.812,1280,78.248C1386.667,63.685,1493.333,63.654,1600,84.765C1706.667,105.875,1813.333,148.126,1866.667,169.252L1920,190.378L1920,864L1866.667,864C1813.333,864,1706.667,864,1600,864C1493.333,864,1386.667,864,1280,864C1173.333,864,1066.667,864,960,864C853.333,864,746.667,864,640,864C533.333,864,426.667,864,320,864C213.333,864,106.667,864,53.333,864L0,864Z"></path></g><g transform="translate(0, 432)"><path fill="rgb(59, 57, 102)" fill-opacity="1" d="M0,199.776L53.333,172.371C106.667,144.967,213.333,90.158,320,67.574C426.667,44.99,533.333,54.631,640,75.764C746.667,96.896,853.333,129.519,960,152.598C1066.667,175.676,1173.333,189.21,1280,180.309C1386.667,171.407,1493.333,140.071,1600,108.188C1706.667,76.304,1813.333,43.874,1866.667,27.658L1920,11.443L1920,648L1866.667,648C1813.333,648,1706.667,648,1600,648C1493.333,648,1386.667,648,1280,648C1173.333,648,1066.667,648,960,648C853.333,648,746.667,648,640,648C533.333,648,426.667,648,320,648C213.333,648,106.667,648,53.333,648L0,648Z"></path></g><g transform="translate(0, 648)"><path fill="rgb(30, 29, 51)" fill-opacity="1" d="M0,1.605L53.333,23.008C106.667,44.41,213.333,87.215,320,100.669C426.667,114.124,533.333,98.228,640,81.706C746.667,65.185,853.333,48.037,960,43.353C1066.667,38.669,1173.333,46.447,1280,51.965C1386.667,57.483,1493.333,60.739,1600,79.834C1706.667,98.928,1813.333,133.861,1866.667,151.327L1920,168.793L1920,432L1866.667,432C1813.333,432,1706.667,432,1600,432C1493.333,432,1386.667,432,1280,432C1173.333,432,1066.667,432,960,432C853.333,432,746.667,432,640,432C533.333,432,426.667,432,320,432C213.333,432,106.667,432,53.333,432L0,432Z"></path></g><g transform="translate(0, 864)"><path fill="rgb(0, 0, 0)" fill-opacity="1" d="M0,206.732L53.333,207.994C106.667,209.256,213.333,211.781,320,197.174C426.667,182.567,533.333,150.829,640,125.577C746.667,100.325,853.333,81.56,960,65.182C1066.667,48.804,1173.333,34.813,1280,55.484C1386.667,76.155,1493.333,131.487,1600,163.3C1706.667,195.113,1813.333,203.408,1866.667,207.555L1920,211.702L1920,216L1866.667,216C1813.333,216,1706.667,216,1600,216C1493.333,216,1386.667,216,1280,216C1173.333,216,1066.667,216,960,216C853.333,216,746.667,216,640,216C533.333,216,426.667,216,320,216C213.333,216,106.667,216,53.333,216L0,216Z"></path></g></g></svg>